<?xml version="1.0" standalone="no"?>
<!DOCTYPE svg PUBLIC "-//W3C//DTD SVG 20010904//EN"
 "http://www.w3.org/TR/2001/REC-SVG-20010904/DTD/svg10.dtd">
<svg version="1.0" xmlns="http://www.w3.org/2000/svg"
 width="260.000000pt" height="260.000000pt" viewBox="0 0 260.000000 260.000000"
 preserveAspectRatio="xMidYMid meet">
<metadata>
Created by potrace 1.11, written by Peter Selinger 2001-2013
</metadata>
<g transform="translate(0.000000,260.000000) scale(0.100000,-0.100000)"
fill="#000000" stroke="none">
<path d="M494 2580 c-217 -57 -386 -213 -461 -426 l-28 -79 -2 -750 c-3 -838
-5 -815 66 -960 67 -136 158 -227 296 -296 140 -69 135 -69 935 -69 790 0 793
1 925 63 178 86 306 241 355 434 19 74 20 111 20 809 -1 704 -2 735 -21 805
-65 234 -241 409 -471 469 -68 17 -119 19 -808 19 -687 0 -740 -1 -806 -19z"/>
</g>
</svg>
